<svg width="224" height="44" viewBox="0 0 224 44" fill="none" xmlns="http://www.w3.org/2000/svg">
<path d="M0 40.5227L17.25 23.1127L26.45 32.3857L42.757 13.9094L46 17.1781L26.45 39.3404L17.25 30.0674L3.45 44L0 40.5227ZM3.45 30.0906L17.25 16.1581L26.45 25.431L46 3.2687L42.757 0L26.45 18.4763L17.25 9.20337L0 26.6133L3.45 30.0906Z" fill="#3B190A"/>
<path d="M64.95 13.44V12.6H70.77V13.44L69.12 13.65C68.8 13.69 68.61 13.78 68.55 13.92C68.49 14.04 68.46 14.44 68.46 15.12V33H66.81L55.8 15.21V30.48C55.8 31.16 55.83 31.57 55.89 31.71C55.95 31.83 56.14 31.91 56.46 31.95L58.11 32.16V33H52.29V32.16L53.94 31.95C54.26 31.91 54.45 31.83 54.51 31.71C54.57 31.57 54.6 31.16 54.6 30.48V15.12C54.6 14.44 54.57 14.04 54.51 13.92C54.45 13.78 54.26 13.69 53.94 13.65L52.29 13.44V12.6H58.32L67.26 26.97V15.12C67.26 14.44 67.23 14.04 67.17 13.92C67.11 13.78 66.92 13.69 66.6 13.65L64.95 13.44ZM86.4563 25.08V25.68C86.4563 27.98 85.8563 29.83 84.6563 31.23C83.4763 32.61 81.7863 33.3 79.5863 33.3C77.3863 33.3 75.6863 32.61 74.4863 31.23C73.3063 29.83 72.7163 27.98 72.7163 25.68V25.08C72.7163 22.78 73.3063 20.94 74.4863 19.56C75.6863 18.18 77.3863 17.49 79.5863 17.49C81.7863 17.49 83.4763 18.18 84.6563 19.56C85.8563 20.94 86.4563 22.78 86.4563 25.08ZM82.7663 24.48C82.7663 22.34 82.4963 20.82 81.9563 19.92C81.4163 19 80.6263 18.54 79.5863 18.54C78.5663 18.54 77.7763 19 77.2163 19.92C76.6763 20.82 76.4063 22.34 76.4063 24.48V26.28C76.4063 28.4 76.6763 29.93 77.2163 30.87C77.7763 31.79 78.5663 32.25 79.5863 32.25C80.6263 32.25 81.4163 31.79 81.9563 30.87C82.4963 29.93 82.7663 28.4 82.7663 26.28V24.48ZM100.837 20.31L96.5773 33H93.8473L89.5873 20.31C89.4473 19.85 89.3273 19.53 89.2273 19.35C89.1473 19.15 89.0473 19.02 88.9273 18.96C88.8273 18.9 88.6673 18.86 88.4473 18.84L86.7973 18.63V17.79H94.8973V18.63L93.2473 18.84C92.9473 18.88 92.7873 18.96 92.7673 19.08C92.7473 19.2 92.8473 19.61 93.0673 20.31L96.3673 30.27L99.6973 20.31C99.9173 19.61 100.017 19.2 99.9973 19.08C99.9973 18.96 99.8373 18.88 99.5173 18.84L97.8673 18.63V17.79H103.597V18.63L101.947 18.84C101.747 18.86 101.587 18.9 101.467 18.96C101.367 19.02 101.277 19.15 101.197 19.35C101.117 19.53 100.997 19.85 100.837 20.31ZM116.607 29.43C116.247 30.83 115.577 31.83 114.597 32.43C113.617 33.01 112.477 33.3 111.177 33.3C108.777 33.3 106.977 32.61 105.777 31.23C104.577 29.83 103.977 27.98 103.977 25.68V25.08C103.977 22.78 104.537 20.94 105.657 19.56C106.797 18.18 108.437 17.49 110.577 17.49C111.777 17.49 112.837 17.73 113.757 18.21C114.697 18.67 115.427 19.34 115.947 20.22C116.487 21.1 116.757 22.17 116.757 23.43C116.757 23.73 116.737 24.05 116.697 24.39C116.677 24.73 116.627 25.07 116.547 25.41H107.667V26.28C107.667 28.4 107.967 29.93 108.567 30.87C109.167 31.79 110.137 32.25 111.477 32.25C112.337 32.25 113.067 32 113.667 31.5C114.267 30.98 114.607 30.11 114.687 28.89L116.607 29.43ZM110.577 18.54C109.597 18.54 108.867 18.99 108.387 19.89C107.907 20.79 107.667 22.28 107.667 24.36H113.097C113.177 23.96 113.227 23.59 113.247 23.25C113.287 22.89 113.307 22.56 113.307 22.26C113.307 20.98 113.057 20.04 112.557 19.44C112.057 18.84 111.397 18.54 110.577 18.54ZM118.746 11.64V10.8H124.506V30.48C124.506 31.16 124.536 31.57 124.596 31.71C124.656 31.83 124.846 31.91 125.166 31.95L126.816 32.16V33H118.746V32.16L120.396 31.95C120.716 31.91 120.906 31.83 120.966 31.71C121.026 31.57 121.056 31.16 121.056 30.48V13.32C121.056 12.64 121.026 12.24 120.966 12.12C120.906 11.98 120.716 11.89 120.396 11.85L118.746 11.64ZM127.769 11.64V10.8H133.529V30.48C133.529 31.16 133.559 31.57 133.619 31.71C133.679 31.83 133.869 31.91 134.189 31.95L135.839 32.16V33H127.769V32.16L129.419 31.95C129.739 31.91 129.929 31.83 129.989 31.71C130.049 31.57 130.079 31.16 130.079 30.48V13.32C130.079 12.64 130.049 12.24 129.989 12.12C129.929 11.98 129.739 11.89 129.419 11.85L127.769 11.64ZM152.303 32.25C151.983 32.55 151.593 32.8 151.133 33C150.693 33.2 150.153 33.3 149.513 33.3C148.693 33.3 148.003 33.12 147.443 32.76C146.903 32.4 146.543 31.89 146.363 31.23C145.703 31.95 144.973 32.48 144.173 32.82C143.393 33.14 142.593 33.3 141.773 33.3C140.393 33.3 139.363 32.92 138.683 32.16C138.003 31.38 137.663 30.41 137.663 29.25C137.663 28.07 138.093 27.12 138.953 26.4C139.813 25.66 141.333 25.29 143.513 25.29H146.243V22.86C146.243 21.2 146.023 20.07 145.583 19.47C145.163 18.85 144.573 18.54 143.812 18.54C143.313 18.54 142.853 18.67 142.433 18.93C142.013 19.17 141.713 19.63 141.533 20.31C141.373 20.97 141.403 21.93 141.623 23.19L138.323 22.71C138.163 21.79 138.263 20.94 138.623 20.16C139.003 19.36 139.633 18.72 140.513 18.24C141.393 17.74 142.513 17.49 143.873 17.49C145.413 17.49 146.603 17.74 147.443 18.24C148.283 18.74 148.863 19.4 149.183 20.22C149.523 21.04 149.693 21.92 149.693 22.86V29.79C149.693 30.81 149.783 31.45 149.963 31.71C150.143 31.97 150.343 32.1 150.563 32.1C150.923 32.1 151.323 31.89 151.763 31.47L152.303 32.25ZM143.093 31.71C143.613 31.71 144.123 31.58 144.623 31.32C145.143 31.04 145.683 30.53 146.243 29.79V26.34H143.993C143.013 26.34 142.303 26.57 141.863 27.03C141.423 27.49 141.203 28.21 141.203 29.19C141.203 29.99 141.363 30.61 141.683 31.05C142.003 31.49 142.473 31.71 143.093 31.71ZM153.745 13.44V12.6H162.025C163.625 12.6 164.895 12.82 165.835 13.26C166.775 13.7 167.445 14.28 167.845 15C168.265 15.72 168.475 16.52 168.475 17.4V18.21C168.475 19.25 168.145 20.15 167.485 20.91C166.845 21.65 165.905 22.18 164.665 22.5C166.185 22.76 167.345 23.3 168.145 24.12C168.965 24.94 169.375 25.97 169.375 27.21V28.05C169.375 28.95 169.165 29.78 168.745 30.54C168.325 31.28 167.625 31.88 166.645 32.34C165.685 32.78 164.395 33 162.775 33H153.745V32.16L155.395 31.95C155.715 31.91 155.905 31.83 155.965 31.71C156.025 31.57 156.055 31.16 156.055 30.48V15.12C156.055 14.44 156.025 14.04 155.965 13.92C155.905 13.78 155.715 13.69 155.395 13.65L153.745 13.44ZM162.025 13.65H159.655V22.05H162.025C162.885 22.05 163.535 21.76 163.975 21.18C164.415 20.58 164.635 19.64 164.635 18.36V17.4C164.635 16.1 164.415 15.15 163.975 14.55C163.535 13.95 162.885 13.65 162.025 13.65ZM162.775 23.1H159.655V31.95H162.775C163.675 31.95 164.355 31.65 164.815 31.05C165.295 30.43 165.535 29.43 165.535 28.05V27.06C165.535 24.42 164.615 23.1 162.775 23.1ZM186.931 32.25C186.611 32.55 186.221 32.8 185.761 33C185.321 33.2 184.781 33.3 184.141 33.3C183.321 33.3 182.631 33.12 182.071 32.76C181.531 32.4 181.171 31.89 180.991 31.23C180.331 31.95 179.601 32.48 178.801 32.82C178.021 33.14 177.221 33.3 176.401 33.3C175.021 33.3 173.991 32.92 173.311 32.16C172.631 31.38 172.291 30.41 172.291 29.25C172.291 28.07 172.721 27.12 173.581 26.4C174.441 25.66 175.961 25.29 178.141 25.29H180.871V22.86C180.871 21.2 180.651 20.07 180.211 19.47C179.791 18.85 179.201 18.54 178.441 18.54C177.941 18.54 177.481 18.67 177.061 18.93C176.641 19.17 176.341 19.63 176.161 20.31C176.001 20.97 176.031 21.93 176.251 23.19L172.951 22.71C172.791 21.79 172.891 20.94 173.251 20.16C173.631 19.36 174.261 18.72 175.141 18.24C176.021 17.74 177.141 17.49 178.501 17.49C180.041 17.49 181.231 17.74 182.071 18.24C182.911 18.74 183.491 19.4 183.811 20.22C184.151 21.04 184.321 21.92 184.321 22.86V29.79C184.321 30.81 184.411 31.45 184.591 31.71C184.771 31.97 184.971 32.1 185.191 32.1C185.551 32.1 185.951 31.89 186.391 31.47L186.931 32.25ZM177.721 31.71C178.241 31.71 178.751 31.58 179.251 31.32C179.771 31.04 180.311 30.53 180.871 29.79V26.34H178.621C177.641 26.34 176.931 26.57 176.491 27.03C176.051 27.49 175.831 28.21 175.831 29.19C175.831 29.99 175.991 30.61 176.311 31.05C176.631 31.49 177.101 31.71 177.721 31.71ZM205.444 32.16V33H197.374V32.16L199.024 31.95C199.344 31.91 199.534 31.83 199.594 31.71C199.654 31.57 199.684 31.16 199.684 30.48V22.92C199.684 21.54 199.474 20.54 199.054 19.92C198.654 19.28 198.054 18.96 197.254 18.96C196.914 18.96 196.514 19.05 196.054 19.23C195.614 19.39 195.164 19.69 194.704 20.13C194.264 20.57 193.874 21.22 193.534 22.08V30.48C193.534 31.16 193.564 31.57 193.624 31.71C193.684 31.83 193.874 31.91 194.194 31.95L195.844 32.16V33H187.774V32.16L189.424 31.95C189.744 31.91 189.934 31.83 189.994 31.71C190.054 31.57 190.084 31.16 190.084 30.48V20.31C190.084 19.63 190.054 19.23 189.994 19.11C189.934 18.97 189.744 18.88 189.424 18.84L187.774 18.63V17.79H193.354V20.43C193.934 19.41 194.674 18.67 195.574 18.21C196.494 17.73 197.414 17.49 198.334 17.49C199.814 17.49 200.984 17.96 201.844 18.9C202.704 19.84 203.134 21.17 203.134 22.89V30.48C203.134 31.16 203.164 31.57 203.224 31.71C203.284 31.83 203.474 31.91 203.794 31.95L205.444 32.16ZM206.255 11.64V10.8H212.015V25.35L217.295 20.31C217.995 19.65 218.365 19.25 218.405 19.11C218.465 18.97 218.325 18.88 217.985 18.84L216.335 18.63V17.79H222.485V18.63L220.835 18.84C220.655 18.86 220.505 18.9 220.385 18.96C220.265 19.02 220.095 19.15 219.875 19.35C219.655 19.53 219.305 19.85 218.825 20.31L215.945 23.07L220.205 30.48C220.485 30.94 220.695 31.27 220.835 31.47C220.975 31.65 221.105 31.77 221.225 31.83C221.365 31.87 221.535 31.91 221.735 31.95L223.385 32.16V33H217.655L213.485 25.41L212.015 26.82V30.48C212.015 31.16 212.045 31.57 212.105 31.71C212.165 31.83 212.355 31.91 212.675 31.95L214.325 32.16V33H206.255V32.16L207.905 31.95C208.225 31.91 208.415 31.83 208.475 31.71C208.535 31.57 208.565 31.16 208.565 30.48V13.32C208.565 12.64 208.535 12.24 208.475 12.12C208.415 11.98 208.225 11.89 207.905 11.85L206.255 11.64Z" fill="black"/>
</svg>
